<svg xmlns="http://www.w3.org/2000/svg" viewBox="0 0 64 64">
  <!-- Bowl bottom -->
  <path d="M10 34 Q10 52 32 52 Q54 52 54 34 Z" fill="#c9422a"/>
  <ellipse cx="32" cy="34" rx="22" ry="4" fill="#a8351d"/>
  <!-- Rice heap -->
  <ellipse cx="32" cy="30" rx="20" ry="8" fill="#fff"/>
  <circle cx="22" cy="26" r="4" fill="#fff"/>
  <circle cx="30" cy="23" r="5" fill="#fff"/>
  <circle cx="40" cy="25" r="4.5" fill="#fff"/>
  <circle cx="46" cy="28" r="3" fill="#fff"/>
  <!-- Rice grains -->
  <circle cx="25" cy="27" r="1" fill="#e8e2d5"/>
  <circle cx="33" cy="24" r="1" fill="#e8e2d5"/>
  <circle cx="38" cy="28" r="1" fill="#e8e2d5"/>
  <!-- Steam -->
  <path d="M24 14 Q22 10 24 6 Q26 10 24 14" fill="none" stroke="#c9422a" stroke-width="1.5" stroke-linecap="round" opacity="0.5"/>
  <path d="M32 12 Q30 8 32 4 Q34 8 32 12" fill="none" stroke="#c9422a" stroke-width="1.5" stroke-linecap="round" opacity="0.5"/>
  <path d="M40 14 Q38 10 40 6 Q42 10 40 14" fill="none" stroke="#c9422a" stroke-width="1.5" stroke-linecap="round" opacity="0.5"/>
</svg>
